<svg xmlns="http://www.w3.org/2000/svg" width="16" height="16" viewBox="0 0 16 16"><defs><style>.a{fill:#232529;}.b{fill:#fff;}</style></defs><g transform="translate(-281 -252)"><path class="a" d="M16.563,8.563a8,8,0,1,1-8-8A8,8,0,0,1,16.563,8.563Z" transform="translate(280.438 251.438)"/><path class="b" d="M1.564-1.163c.583,0,.911-.3,1.119-1.024L2.975-3.1h2.94l.292.952c.19.7.518.988,1.149.988a1.032,1.032,0,0,0,1.1-1.048,1.97,1.97,0,0,0-.143-.708L6.171-8.741a1.674,1.674,0,0,0-1.75-1.274,1.659,1.659,0,0,0-1.7,1.274L.606-2.919a2.314,2.314,0,0,0-.155.714A1,1,0,0,0,1.564-1.163ZM3.41-4.753l.976-3.31h.048l1.006,3.31Z" transform="translate(284.549 266.015)"/></g></svg>