<svg xmlns="http://www.w3.org/2000/svg" width="13.032" height="13.901" viewBox="0 0 13.032 13.901"><path d="M6.915,7.141H8.652V8.878H6.915Zm2.606,0h1.738V8.878H9.521Zm2.606,0h1.738V8.878H12.128ZM4.308,12.354H6.046v1.738H4.308Zm2.606,0H8.652v1.738H6.915Zm2.606,0h1.738v1.738H9.521ZM6.915,9.747H8.652v1.738H6.915Zm2.606,0h1.738v1.738H9.521Zm2.606,0h1.738v1.738H12.128Zm-7.819,0H6.046v1.738H4.308Zm9.557-7.819V2.8H12.128V1.928H6.046V2.8H4.308V1.928H2.571v13.9H15.6V1.928H13.865Zm.869,13.032H3.44V5.4H14.734Z" transform="translate(-2.571 -1.928)"/></svg>