<svg xmlns="http://www.w3.org/2000/svg" width="60" height="38.182" viewBox="0 0 60 38.182"><defs><style>.a{fill:#b4d1e0;}</style></defs><path class="a" d="M42.409,23.864a8.182,8.182,0,1,0-8.182-8.182A8.148,8.148,0,0,0,42.409,23.864Zm-21.818,0a8.182,8.182,0,1,0-8.182-8.182A8.148,8.148,0,0,0,20.591,23.864Zm0,5.455c-6.355,0-19.091,3.191-19.091,9.545v6.818H39.682V38.864C39.682,32.509,26.945,29.318,20.591,29.318Zm21.818,0c-.791,0-1.691.055-2.645.136,3.164,2.291,5.373,5.373,5.373,9.409v6.818H61.5V38.864C61.5,32.509,48.764,29.318,42.409,29.318Z" transform="translate(-1.5 -7.5)"/></svg>