<svg xmlns="http://www.w3.org/2000/svg" width="30" height="30" viewBox="0 0 30 30"><defs><style>.a{fill:#fff;}.b{fill:#232529;}</style></defs><g transform="translate(-1106 -10)"><rect class="a" width="30" height="30" rx="15" transform="translate(1106 10)"/><path class="b" d="M12.625,19.375a1.629,1.629,0,0,0,1.647-1.6H10.978A1.629,1.629,0,0,0,12.625,19.375Zm5.353-4.8v-4.4a5.225,5.225,0,0,0-4.118-5.04v-.56a1.236,1.236,0,0,0-2.471,0v.56a5.225,5.225,0,0,0-4.118,5.04v4.4l-1.647,1.6v.8h14v-.8Z" transform="translate(1108.375 13.625)"/></g></svg>