<svg xmlns="http://www.w3.org/2000/svg" width="35.678" height="48" viewBox="0 0 35.678 48"><defs><style>.a{fill:#b4d1e0;}</style></defs><path class="a" d="M39.349,41.512V2.595A2.6,2.6,0,0,0,36.752,0H6.266A2.6,2.6,0,0,0,3.671,2.595V45.405A2.6,2.6,0,0,0,6.266,48H36.752a2.589,2.589,0,0,0,2.232-1.3H8.86A2.6,2.6,0,0,1,6.266,44.11H36.752A2.605,2.605,0,0,0,39.349,41.512Zm-26.815-6.8a1.186,1.186,0,1,1-1.677-1.678l7.4-7.4,1.678,1.678Zm18.007.1a1.191,1.191,0,0,1-1.682,0L16.282,22.239a1.263,1.263,0,0,1-.128-.186c-1.821.866-4.431.243-6.373-1.7C7.467,18.039,7,14.752,8.734,13.015s5.022-1.265,7.336,1.049c1.942,1.942,2.564,4.553,1.7,6.374a1.063,1.063,0,0,1,.19.126L30.538,33.142A1.188,1.188,0,0,1,30.541,34.818Zm4.605-18.1-5.389,5.389a.59.59,0,0,1-.141.094c-1.839,1.636-3.728,1.648-5.265.66a.881.881,0,0,1-.079.116l-1.235,1.237-1.678-1.677L22.6,21.3a1.054,1.054,0,0,1,.116-.076c-.99-1.539-.978-3.429.66-5.265a.529.529,0,0,1,.092-.139l5.389-5.391a.636.636,0,1,1,.9.9l-5.21,5.21.9.9,5.211-5.211a.635.635,0,0,1,.9.9l-5.21,5.211.9.9,5.21-5.21a.635.635,0,1,1,.9.9l-5.21,5.21.9.9,5.21-5.211a.636.636,0,0,1,.9.9Z" transform="translate(-3.671)"/></svg>