<svg xmlns="http://www.w3.org/2000/svg" width="25" height="25" viewBox="0 0 25 25"><defs><style>.a{fill:#4394c1;}.b{fill:#fff;}</style></defs><g transform="translate(-1106 -10)"><rect class="a" width="25" height="25" rx="12.5" transform="translate(1106 10)"/><path class="b" d="M11.928,8.2A6.682,6.682,0,0,0,6,4.5,6.683,6.683,0,0,0,.073,8.2a.674.674,0,0,0,0,.608A6.682,6.682,0,0,0,6,12.5a6.683,6.683,0,0,0,5.928-3.7A.674.674,0,0,0,11.928,8.2ZM6,11.5a3,3,0,1,1,3-3A3,3,0,0,1,6,11.5Zm0-5a1.986,1.986,0,0,0-.527.079A1,1,0,0,1,4.079,7.973,2,2,0,1,0,6,6.5Z" transform="translate(1113 14.5)"/></g></svg>